<?xml version="1.0" encoding="utf-8"?>
<!-- Generator: Adobe Illustrator 26.0.2, SVG Export Plug-In . SVG Version: 6.00 Build 0)  -->
<svg version="1.1" id="Layer_1" xmlns="http://www.w3.org/2000/svg" xmlns:xlink="http://www.w3.org/1999/xlink" x="0px" y="0px"
	 viewBox="0 0 76 76" style="enable-background:new 0 0 76 76;" xml:space="preserve">
<path d="M38,6c17.7,0,32,14.3,32,32S55.7,70,38,70S6,55.7,6,38S20.3,6,38,6z M38,12.7c-13.1,0-23.9,9.9-25.2,22.7h12.1
	c1.2-6.1,6.6-10.7,13.1-10.7s11.8,4.6,13.1,10.7h12.1C61.9,22.6,51.1,12.7,38,12.7z M12.8,40.7C14.1,53.4,24.9,63.3,38,63.3
	s23.9-9.9,25.2-22.7l-12.1,0c-1.2,6.1-6.6,10.7-13.1,10.7s-11.8-4.6-13.1-10.7L12.8,40.7z M38,30c-4.4,0-8,3.6-8,8c0,4.4,3.6,8,8,8
	c4.4,0,8-3.6,8-8C46,33.6,42.4,30,38,30z M38,34c2.2,0,4,1.8,4,4s-1.8,4-4,4s-4-1.8-4-4S35.8,34,38,34z"/>
</svg>
